<svg width="18.000000" height="18.000000" viewBox="0 0 18 18" fill="none" xmlns="http://www.w3.org/2000/svg" xmlns:xlink="http://www.w3.org/1999/xlink">
	<desc>
			Created with Pixso.
	</desc>
	<defs/>
	<path id="Vector" d="M17.12 3.71001L14.29 0.880005C13.7279 0.31723 12.9654 0.000701904 12.17 0L5.83002 0C5.03461 0.000701904 4.27209 0.31723 3.71002 0.880005L0.880005 3.71001C0.3172 4.27206 0.000671387 5.03462 0 5.83L0 15C0 15.7957 0.316101 16.5587 0.878662 17.1213C1.44128 17.6839 2.20435 18 3 18L15 18C15.7957 18 16.5587 17.6839 17.1213 17.1213C17.684 16.5587 18 15.7957 18 15L18 5.83C17.9993 5.03462 17.6828 4.27206 17.12 3.71001L17.12 3.71001M5.12 2.28999C5.31165 2.10727 5.56525 2.00368 5.83002 2L12.17 2C12.4348 2.00368 12.6884 2.10727 12.88 2.28999L14.59 4L3.40997 4L5.12 2.28999M15 16L3 16C2.7348 16 2.48041 15.8946 2.29291 15.7071C2.10535 15.5196 2 15.2652 2 15L2 6L16 6L16 15C16 15.2652 15.8947 15.5196 15.7071 15.7071C15.5196 15.8946 15.2652 16 15 16L15 16Z" fill="#232229" fill-opacity="1.000000" fill-rule="nonzero"/>
</svg>
