<svg width="31.783073" height="35.793167" viewBox="0 0 31.7831 35.7932" fill="none" xmlns="http://www.w3.org/2000/svg" xmlns:xlink="http://www.w3.org/1999/xlink">
	<desc>
			Created with Pixso.
	</desc>
	<defs/>
	<path id="Path 81" d="M31.5679 14.0338L31.5951 14.0418C31.9973 14.7792 31.734 15.6747 30.9966 16.077C30.2592 16.4792 29.3637 16.2159 28.9615 15.4785L28.9694 15.4513L31.5679 14.0338ZM21.7576 2.23114L21.7304 2.22316C21.3282 1.48575 21.5915 0.590271 22.3289 0.188004C23.0663 -0.214264 23.9618 0.049057 24.364 0.786469L24.3561 0.813599L21.7576 2.23114Z" fill="#D8D8D8" fill-opacity="0" fill-rule="nonzero"/>
	<path id="Path 81" d="M30.2783 14.7601L23.0472 1.50482" stroke="#FE6A3A" stroke-opacity="1.000000" stroke-width="3.000000" stroke-linecap="round"/>
	<path id="Path 82" d="M16.6409 30.7734L16.6638 30.7567C17.4935 30.8877 18.0426 31.6425 17.9117 32.4722C17.7808 33.3019 17.0259 33.851 16.1962 33.7201L16.1796 33.6972L16.6409 30.7734ZM1.29002 31.3477L1.26714 31.3644C0.437416 31.2335 -0.111649 30.4787 0.0192795 29.6489C0.1502 28.8192 0.905006 28.2701 1.73474 28.401L1.75138 28.4239L1.29002 31.3477Z" fill="#D8D8D8" fill-opacity="0" fill-rule="nonzero"/>
	<path id="Path 82" d="M16.43 32.2384L1.50095 29.8827" stroke="#FE6A3A" stroke-opacity="1.000000" stroke-width="3.000000" stroke-linecap="round"/>
	<path id="Path 82 Copy" d="M24.3414 22.5783L24.3694 22.5745C25.0395 23.0811 25.1678 24.0056 24.6612 24.6756C24.1545 25.3456 23.23 25.474 22.56 24.9673L22.5561 24.9393L24.3414 22.5783ZM4.59981 11.3611L4.57179 11.365C3.90179 10.8583 3.77343 9.93382 4.28008 9.26382C4.78673 8.59381 5.71124 8.46545 6.38125 8.97211L6.38514 9.00012L4.59981 11.3611Z" fill="#D8D8D8" fill-opacity="0" fill-rule="nonzero"/>
	<path id="Path 82 Copy" d="M23.4647 23.7709L5.47652 10.1685" stroke="#FE6A3A" stroke-opacity="1.000000" stroke-width="3.000000" stroke-linecap="round"/>
</svg>
